# Blender v2.80 (sub 75) OBJ File: '25x25x50Block.blend'
# www.blender.org
mtllib 25x25x50Block.mtl
o 25x50x25Block_25x50x25Block.001
v -0.220000 -0.025000 0.095000
v -0.220000 -0.025000 -0.095000
v -0.220000 -0.055000 0.095000
v -0.220000 -0.055000 -0.095000
v -0.046213 -0.025000 -0.095000
v -0.033787 -0.055000 -0.095000
v 0.046213 0.025000 -0.095000
v 0.033787 0.055000 -0.095000
v 0.220000 0.055000 -0.095000
v 0.220000 0.025000 -0.095000
v -0.250000 -0.025000 -0.095000
v -0.250000 -0.025000 0.095000
v -0.250000 0.095000 -0.095000
v -0.250000 0.095000 0.095000
v 0.220000 0.055000 0.095000
v 0.220000 0.025000 0.095000
v 0.250000 0.025000 -0.095000
v 0.250000 0.025000 0.095000
v 0.250000 -0.095000 -0.095000
v 0.250000 -0.095000 0.095000
v 0.250000 0.055000 0.095000
v 0.250000 0.055000 -0.095000
v 0.250000 0.095000 0.095000
v 0.250000 0.095000 -0.095000
v -0.220000 -0.025000 -0.125000
v -0.046213 -0.025000 -0.125000
v -0.220000 -0.025000 0.125000
v -0.046213 -0.025000 0.095000
v -0.046213 -0.025000 0.125000
v 0.046213 0.025000 -0.125000
v -0.033787 -0.055000 -0.125000
v -0.250000 -0.055000 -0.095000
v -0.220000 -0.055000 -0.125000
v -0.250000 -0.055000 0.095000
v -0.220000 -0.055000 0.125000
v -0.033787 -0.055000 0.125000
v -0.033787 -0.055000 0.095000
v 0.033787 0.055000 -0.125000
v 0.220000 0.025000 -0.125000
v 0.220000 -0.095000 -0.125000
v 0.220000 0.055000 -0.125000
v 0.220000 0.095000 -0.125000
v -0.220000 -0.095000 -0.125000
v -0.220000 0.095000 -0.125000
v -0.250000 -0.095000 -0.095000
v 0.220000 0.055000 0.125000
v 0.033787 0.055000 0.125000
v 0.033787 0.055000 0.095000
v 0.046213 0.025000 0.125000
v 0.046213 0.025000 0.095000
v 0.220000 0.025000 0.125000
v -0.220000 -0.095000 0.125000
v -0.250000 -0.095000 0.095000
v -0.220000 0.095000 0.125000
v 0.220000 -0.095000 0.125000
v 0.220000 0.095000 0.125000
v 0.220000 -0.125000 0.095000
v 0.220000 -0.125000 -0.095000
v -0.220000 -0.125000 0.095000
v 0.220000 0.125000 0.095000
v -0.220000 -0.125000 -0.095000
v 0.220000 0.125000 -0.095000
v -0.220000 0.125000 0.095000
v -0.220000 0.125000 -0.095000
vt 0.230001 0.773298
vt 0.407327 0.773298
vt 0.230001 0.801297
vt 0.407327 0.801297
vt 0.838389 0.420553
vt 0.789626 0.575245
vt 0.811685 0.412136
vt 0.759436 0.577888
vt 0.808198 0.671544
vt 0.838389 0.668901
vt 0.786139 0.834653
vt 0.759436 0.826235
vt 0.346805 0.590453
vt 0.346805 0.767779
vt 0.234810 0.590453
vt 0.234810 0.767779
vt 0.702448 0.809635
vt 0.525122 0.809635
vt 0.702448 0.781636
vt 0.525122 0.781636
vt 0.637117 0.603320
vt 0.637117 0.780646
vt 0.525122 0.603320
vt 0.525122 0.780646
vt 0.756613 0.603320
vt 0.756613 0.780646
vt 0.719281 0.603320
vt 0.719281 0.780646
vt 0.000495 0.789699
vt 0.000495 0.612373
vt 0.028494 0.612373
vt 0.028494 0.584374
vt 0.190689 0.584374
vt 0.190689 0.612373
vt 0.028494 0.789699
vt 0.028494 0.817698
vt 0.190689 0.789699
vt 0.190689 0.817698
vt 0.000495 0.818689
vt 0.106086 0.818689
vt 0.000495 0.846687
vt 0.106086 0.846688
vt 0.205820 0.583384
vt 0.205820 0.555385
vt 0.233819 0.555385
vt 0.205820 0.381593
vt 0.233819 0.381593
vt 0.028494 0.555385
vt 0.028494 0.583384
vt 0.000495 0.555385
vt 0.000495 0.381593
vt 0.028494 0.381593
vt 0.885010 0.107076
vt 0.885010 0.212666
vt 0.857011 0.107076
vt 0.857011 0.212666
vt 0.856020 0.290807
vt 0.816424 0.290807
vt 0.856020 0.178812
vt 0.816424 0.178812
vt 0.675439 0.810625
vt 0.675439 0.850222
vt 0.638107 0.810625
vt 0.638107 0.850222
vt 0.703438 0.162690
vt 0.703438 0.000495
vt 0.778102 0.237354
vt 0.815434 0.000495
vt 0.815434 0.411145
vt 0.778102 0.411145
vt 0.486799 0.822786
vt 0.486799 0.648994
vt 0.524131 0.822786
vt 0.524131 0.412136
vt 0.412136 0.412136
vt 0.412136 0.574330
vt 0.229011 0.761700
vt 0.229011 0.801297
vt 0.191679 0.761700
vt 0.191679 0.801297
vt 0.743035 0.893632
vt 0.703438 0.893632
vt 0.743035 0.781636
vt 0.703438 0.781636
vt 0.205820 0.380603
vt 0.028494 0.380603
vt 0.028494 0.352604
vt 0.000495 0.352604
vt 0.000495 0.178812
vt 0.028494 0.178812
vt 0.205820 0.352604
vt 0.233819 0.352604
vt 0.205820 0.178812
vt 0.233819 0.178812
vt 0.106086 0.875677
vt 0.000495 0.875677
vt 0.106086 0.847678
vt 0.000495 0.847678
vt 0.553120 0.412136
vt 0.553120 0.440135
vt 0.525122 0.440135
vt 0.553120 0.602329
vt 0.525122 0.602329
vt 0.730447 0.440135
vt 0.730447 0.412136
vt 0.758446 0.440135
vt 0.758446 0.602329
vt 0.730447 0.602329
vt 0.857011 0.106086
vt 0.857011 0.000495
vt 0.885010 0.106086
vt 0.885010 0.000495
vt 0.839379 0.420553
vt 0.866082 0.412136
vt 0.888141 0.575244
vt 0.918332 0.577888
vt 0.869569 0.671544
vt 0.918332 0.826235
vt 0.891628 0.834653
vt 0.839379 0.668901
vt 0.797758 0.875240
vt 0.797758 0.835643
vt 0.835090 0.875240
vt 0.835090 0.835643
vt 0.816424 0.291797
vt 0.856020 0.291797
vt 0.816424 0.403793
vt 0.856020 0.403793
vt 0.309473 0.178812
vt 0.346805 0.178812
vt 0.309473 0.352604
vt 0.346805 0.589462
vt 0.234810 0.589462
vt 0.234810 0.427268
vt 0.590452 0.248951
vt 0.665116 0.174287
vt 0.590452 0.411145
vt 0.702448 0.411145
vt 0.702448 0.000495
vt 0.665116 0.000495
vt 0.525122 0.850222
vt 0.525122 0.810625
vt 0.637117 0.850222
vt 0.637117 0.810625
vt 0.796768 0.835643
vt 0.796768 0.875240
vt 0.759436 0.835643
vt 0.759436 0.875240
vt 0.666249 0.871010
vt 0.700540 0.851212
vt 0.700540 0.890808
vt 0.857011 0.233455
vt 0.891302 0.213657
vt 0.891302 0.253253
vt 0.347795 0.767779
vt 0.347795 0.590453
vt 0.387392 0.767779
vt 0.387392 0.590453
vt 0.559413 0.851212
vt 0.559413 0.890808
vt 0.525122 0.871010
vt 0.857011 0.274041
vt 0.891302 0.254243
vt 0.891302 0.293840
vt 0.595685 0.871010
vt 0.629977 0.851212
vt 0.629977 0.890808
vt 0.718290 0.603320
vt 0.718290 0.780646
vt 0.678694 0.603320
vt 0.678694 0.780646
vt 0.560403 0.871010
vt 0.594695 0.851212
vt 0.594695 0.890808
vt 0.630967 0.871010
vt 0.665258 0.851212
vt 0.665258 0.890808
vt 0.113480 0.823776
vt 0.524131 0.823776
vt 0.113480 0.863373
vt 0.524131 0.863373
vt 0.857011 0.314628
vt 0.891302 0.294830
vt 0.891302 0.334426
vt 0.856020 0.000495
vt 0.856020 0.177821
vt 0.816424 0.000495
vt 0.816424 0.177821
vt 0.387392 0.178812
vt 0.387392 0.589463
vt 0.347796 0.178812
vt 0.347795 0.589463
vt 0.638107 0.780646
vt 0.638107 0.603320
vt 0.677704 0.780646
vt 0.677704 0.603320
vt 0.999505 0.412136
vt 0.999505 0.822787
vt 0.959909 0.412136
vt 0.959909 0.822787
vt 0.919322 0.822787
vt 0.919322 0.412136
vt 0.958918 0.822787
vt 0.958918 0.412136
vt 0.229011 0.584374
vt 0.191679 0.584374
vt 0.411145 0.177821
vt 0.000495 0.177821
vt 0.411145 0.000495
vt 0.000495 0.000495
vt 0.412136 0.000495
vt 0.589462 0.000495
vt 0.412136 0.411145
vt 0.589462 0.411145
vn -1.0000 0.0000 0.0000
vn 0.0000 0.0000 -1.0000
vn 1.0000 0.0000 0.0000
vn 0.0000 -1.0000 -0.0000
vn -0.7071 0.7071 0.0000
vn 0.0000 1.0000 0.0000
vn 0.7071 -0.7071 -0.0000
vn 0.7071 0.0000 -0.7071
vn -0.7071 0.0000 -0.7071
vn 0.0000 0.0000 1.0000
vn -0.7071 0.0000 0.7071
vn 0.7071 0.0000 0.7071
vn 0.5774 -0.5774 0.5774
vn 0.5774 -0.5774 -0.5774
vn -0.5774 -0.5774 0.5774
vn 0.5774 0.5774 0.5774
vn -0.5774 -0.5774 -0.5774
vn -0.7071 -0.7071 0.0000
vn 0.5774 0.5774 -0.5774
vn -0.5774 0.5774 0.5774
vn 0.0000 0.7071 0.7071
vn -0.5774 0.5774 -0.5774
vn 0.0000 0.7071 -0.7071
vn 0.7071 0.7071 0.0000
vn 0.0000 -0.7071 -0.7071
vn 0.0000 -0.7071 0.7071
usemtl Steel
s off
f 1/1/1 2/2/1 3/3/1
f 3/3/1 2/2/1 4/4/1
f 2/5/2 5/6/2 4/7/2
f 4/7/2 5/6/2 6/8/2
f 6/8/2 5/6/2 7/9/2
f 7/9/2 5/6/2 8/10/2
f 7/9/2 8/10/2 9/11/2
f 9/11/2 10/12/2 7/9/2
f 11/13/1 12/14/1 13/15/1
f 13/15/1 12/14/1 14/16/1
f 9/17/3 15/18/3 10/19/3
f 10/19/3 15/18/3 16/20/3
f 17/21/3 18/22/3 19/23/3
f 19/23/3 18/22/3 20/24/3
f 21/25/3 22/26/3 23/27/3
f 23/27/3 22/26/3 24/28/3
f 12/29/4 11/30/4 2/31/4
f 2/31/4 11/30/4 25/32/4
f 2/31/4 25/32/4 26/33/4
f 26/33/4 5/34/4 2/31/4
f 2/31/4 1/35/4 12/29/4
f 12/29/4 1/35/4 27/36/4
f 27/36/4 1/35/4 28/37/4
f 27/36/4 28/37/4 29/38/4
f 30/39/5 31/40/5 7/41/5
f 7/41/5 31/40/5 6/42/5
f 32/43/6 4/44/6 33/45/6
f 33/45/6 4/44/6 6/46/6
f 33/45/6 6/46/6 31/47/6
f 4/44/6 32/43/6 3/48/6
f 3/48/6 32/43/6 34/49/6
f 3/48/6 34/49/6 35/50/6
f 35/50/6 36/51/6 3/48/6
f 3/48/6 36/51/6 37/52/6
f 26/53/7 38/54/7 5/55/7
f 5/55/7 38/54/7 8/56/7
f 39/57/8 17/58/8 40/59/8
f 40/59/8 17/58/8 19/60/8
f 22/61/8 41/62/8 24/63/8
f 24/63/8 41/62/8 42/64/8
f 30/65/2 39/66/2 31/67/2
f 31/67/2 39/66/2 40/68/2
f 31/67/2 40/68/2 43/69/2
f 43/69/2 33/70/2 31/67/2
f 41/71/2 38/72/2 42/73/2
f 42/73/2 38/72/2 44/74/2
f 44/74/2 38/72/2 25/75/2
f 25/75/2 38/72/2 26/76/2
f 32/77/9 33/78/9 45/79/9
f 45/79/9 33/78/9 43/80/9
f 25/81/9 11/82/9 44/83/9
f 44/83/9 11/82/9 13/84/9
f 22/85/4 21/86/4 15/87/4
f 15/87/4 21/86/4 46/88/4
f 15/87/4 46/88/4 47/89/4
f 47/89/4 48/90/4 15/87/4
f 15/87/4 9/91/4 22/85/4
f 22/85/4 9/91/4 41/92/4
f 41/92/4 9/91/4 8/93/4
f 41/92/4 8/93/4 38/94/4
f 36/95/5 49/96/5 37/97/5
f 37/97/5 49/96/5 50/98/5
f 18/99/6 16/100/6 51/101/6
f 51/101/6 16/100/6 50/102/6
f 51/101/6 50/102/6 49/103/6
f 16/100/6 18/99/6 10/104/6
f 10/104/6 18/99/6 17/105/6
f 10/104/6 17/105/6 39/106/6
f 39/106/6 30/107/6 10/104/6
f 10/104/6 30/107/6 7/108/6
f 47/109/7 29/110/7 48/111/7
f 48/111/7 29/110/7 28/112/7
f 1/113/10 3/114/10 28/115/10
f 28/115/10 3/114/10 37/116/10
f 28/115/10 37/116/10 50/117/10
f 16/118/10 15/119/10 50/117/10
f 50/117/10 15/119/10 48/120/10
f 50/117/10 48/120/10 28/115/10
f 35/121/11 34/122/11 52/123/11
f 52/123/11 34/122/11 53/124/11
f 12/125/11 27/126/11 14/127/11
f 14/127/11 27/126/11 54/128/11
f 35/129/10 52/130/10 36/131/10
f 36/131/10 52/130/10 55/132/10
f 36/131/10 55/132/10 51/133/10
f 51/133/10 49/134/10 36/131/10
f 29/135/10 47/136/10 27/137/10
f 27/137/10 47/136/10 54/138/10
f 54/138/10 47/136/10 56/139/10
f 56/139/10 47/136/10 46/140/10
f 18/141/12 51/142/12 20/143/12
f 20/143/12 51/142/12 55/144/12
f 46/145/12 21/146/12 56/147/12
f 56/147/12 21/146/12 23/148/12
f 20/149/13 55/150/13 57/151/13
f 40/152/14 19/153/14 58/154/14
f 19/155/7 20/156/7 58/157/7
f 58/157/7 20/156/7 57/158/7
f 52/159/15 53/160/15 59/161/15
f 60/162/16 56/163/16 23/164/16
f 43/165/17 61/166/17 45/167/17
f 53/168/18 45/169/18 59/170/18
f 59/170/18 45/169/18 61/171/18
f 62/172/19 24/173/19 42/174/19
f 63/175/20 14/176/20 54/177/20
f 60/178/21 63/179/21 56/180/21
f 56/180/21 63/179/21 54/181/21
f 64/182/22 44/183/22 13/184/22
f 63/185/5 64/186/5 14/187/5
f 14/187/5 64/186/5 13/188/5
f 64/189/23 62/190/23 44/191/23
f 44/191/23 62/190/23 42/192/23
f 62/193/24 60/194/24 24/195/24
f 24/195/24 60/194/24 23/196/24
f 43/197/25 40/198/25 61/199/25
f 61/199/25 40/198/25 58/200/25
f 55/201/26 52/202/26 57/203/26
f 57/203/26 52/202/26 59/204/26
f 34/205/1 32/77/1 53/206/1
f 53/206/1 32/77/1 45/79/1
f 61/207/4 58/208/4 59/209/4
f 59/209/4 58/208/4 57/210/4
f 60/211/6 62/212/6 63/213/6
f 63/213/6 62/212/6 64/214/6
